<?xml version="1.0" encoding="UTF-8"?>
<!DOCTYPE svg PUBLIC "-//W3C//DTD SVG 1.1//EN" "http://www.w3.org/Graphics/SVG/1.1/DTD/svg11.dtd">
<svg version="1.2" width="135.47mm" height="135.47mm" viewBox="0 0 13547 13547" preserveAspectRatio="xMidYMid" fill-rule="evenodd" stroke-width="28.222" stroke-linejoin="round" xmlns="http://www.w3.org/2000/svg" xmlns:ooo="http://xml.openoffice.org/svg/export" xmlns:xlink="http://www.w3.org/1999/xlink" xmlns:presentation="http://sun.com/xmlns/staroffice/presentation" xmlns:smil="http://www.w3.org/2001/SMIL20/" xmlns:anim="urn:oasis:names:tc:opendocument:xmlns:animation:1.0" xml:space="preserve">
 <defs class="ClipPathGroup">
  <clipPath id="presentation_clip_path" clipPathUnits="userSpaceOnUse">
   <rect x="0" y="0" width="13547" height="13547"/>
  </clipPath>
  <clipPath id="presentation_clip_path_shrink" clipPathUnits="userSpaceOnUse">
   <rect x="13" y="13" width="13520" height="13520"/>
  </clipPath>
 </defs>
 <defs class="TextShapeIndex">
  <g ooo:slide="id1" ooo:id-list="id3 id4 id5"/>
 </defs>
 <defs class="EmbeddedBulletChars">
  <g id="bullet-char-template-57356" transform="scale(0.00048828125,-0.00048828125)">
   <path d="M 580,1141 L 1163,571 580,0 -4,571 580,1141 Z"/>
  </g>
  <g id="bullet-char-template-57354" transform="scale(0.00048828125,-0.00048828125)">
   <path d="M 8,1128 L 1137,1128 1137,0 8,0 8,1128 Z"/>
  </g>
  <g id="bullet-char-template-10146" transform="scale(0.00048828125,-0.00048828125)">
   <path d="M 174,0 L 602,739 174,1481 1456,739 174,0 Z M 1358,739 L 309,1346 659,739 1358,739 Z"/>
  </g>
  <g id="bullet-char-template-10132" transform="scale(0.00048828125,-0.00048828125)">
   <path d="M 2015,739 L 1276,0 717,0 1260,543 174,543 174,936 1260,936 717,1481 1274,1481 2015,739 Z"/>
  </g>
  <g id="bullet-char-template-10007" transform="scale(0.00048828125,-0.00048828125)">
   <path d="M 0,-2 C -7,14 -16,27 -25,37 L 356,567 C 262,823 215,952 215,954 215,979 228,992 255,992 264,992 276,990 289,987 310,991 331,999 354,1012 L 381,999 492,748 772,1049 836,1024 860,1049 C 881,1039 901,1025 922,1006 886,937 835,863 770,784 769,783 710,716 594,584 L 774,223 C 774,196 753,168 711,139 L 727,119 C 717,90 699,76 672,76 641,76 570,178 457,381 L 164,-76 C 142,-110 111,-127 72,-127 30,-127 9,-110 8,-76 1,-67 -2,-52 -2,-32 -2,-23 -1,-13 0,-2 Z"/>
  </g>
  <g id="bullet-char-template-10004" transform="scale(0.00048828125,-0.00048828125)">
   <path d="M 285,-33 C 182,-33 111,30 74,156 52,228 41,333 41,471 41,549 55,616 82,672 116,743 169,778 240,778 293,778 328,747 346,684 L 369,508 C 377,444 397,411 428,410 L 1163,1116 C 1174,1127 1196,1133 1229,1133 1271,1133 1292,1118 1292,1087 L 1292,965 C 1292,929 1282,901 1262,881 L 442,47 C 390,-6 338,-33 285,-33 Z"/>
  </g>
  <g id="bullet-char-template-9679" transform="scale(0.00048828125,-0.00048828125)">
   <path d="M 813,0 C 632,0 489,54 383,161 276,268 223,411 223,592 223,773 276,916 383,1023 489,1130 632,1184 813,1184 992,1184 1136,1130 1245,1023 1353,916 1407,772 1407,592 1407,412 1353,268 1245,161 1136,54 992,0 813,0 Z"/>
  </g>
  <g id="bullet-char-template-8226" transform="scale(0.00048828125,-0.00048828125)">
   <path d="M 346,457 C 273,457 209,483 155,535 101,586 74,649 74,723 74,796 101,859 155,911 209,963 273,989 346,989 419,989 480,963 531,910 582,859 608,796 608,723 608,648 583,586 532,535 482,483 420,457 346,457 Z"/>
  </g>
  <g id="bullet-char-template-8211" transform="scale(0.00048828125,-0.00048828125)">
   <path d="M -4,459 L 1135,459 1135,606 -4,606 -4,459 Z"/>
  </g>
  <g id="bullet-char-template-61548" transform="scale(0.00048828125,-0.00048828125)">
   <path d="M 173,740 C 173,903 231,1043 346,1159 462,1274 601,1332 765,1332 928,1332 1067,1274 1183,1159 1299,1043 1357,903 1357,740 1357,577 1299,437 1183,322 1067,206 928,148 765,148 601,148 462,206 346,322 231,437 173,577 173,740 Z"/>
  </g>
 </defs>
 <g>
  <g id="id2" class="Master_Slide">
   <g id="bg-id2" class="Background"/>
   <g id="bo-id2" class="BackgroundObjects"/>
  </g>
 </g>
 <g class="SlideGroup">
  <g>
   <g id="container-id1">
    <g id="id1" class="Slide" clip-path="url(#presentation_clip_path)">
     <g class="Page">
      <g class="Group">
       <g class="Graphic">
        <g id="id3">
         <rect class="BoundingBox" stroke="none" fill="none" x="556" y="556" width="12436" height="12436"/>
         <defs>
          <clipPath id="clip_path_1" clipPathUnits="userSpaceOnUse">
           <path d="M 556,556 L 12991,556 12991,12991 556,12991 556,556 Z"/>
          </clipPath>
         </defs>
         <g clip-path="url(#clip_path_1)">
          <path fill="rgb(254,202,87)" stroke="none" d="M 4247,7789 C 4141,8583 3461,9196 2637,9196 1814,9196 1134,8583 1028,7789 L 4247,7789 4247,7789 Z"/>
          <path fill="rgb(204,210,219)" stroke="none" d="M 4154,7477 L 2752,3688 C 2716,3590 2766,3482 2863,3447 2960,3411 3068,3460 3104,3557 L 4506,7347 C 4542,7444 4492,7552 4395,7588 4298,7624 4190,7574 4154,7477 L 4154,7477 Z"/>
          <path fill="rgb(204,210,219)" stroke="none" d="M 1031,7588 C 934,7552 884,7444 920,7347 L 2322,3557 C 2358,3460 2466,3411 2563,3447 2660,3482 2710,3590 2674,3688 L 1272,7477 C 1236,7574 1128,7624 1031,7588 L 1031,7588 Z"/>
          <path fill="rgb(204,210,219)" stroke="none" d="M 9152,7588 C 9055,7552 9005,7443 9042,7346 L 10443,3599 C 10479,3502 10588,3453 10685,3489 10782,3526 10831,3634 10795,3731 L 9393,7478 C 9357,7575 9249,7624 9152,7588 L 9152,7588 Z"/>
          <path fill="rgb(204,210,219)" stroke="none" d="M 12275,7478 L 10873,3731 C 10837,3634 10886,3526 10983,3489 11081,3453 11189,3502 11225,3599 L 12626,7346 C 12663,7443 12614,7552 12516,7588 12419,7624 12311,7575 12275,7478 L 12275,7478 Z"/>
          <path fill="rgb(62,75,90)" stroke="none" d="M 3017,3822 C 2921,3822 2839,3749 2830,3652 2820,3549 2896,3457 2999,3448 3623,3389 3789,3318 6261,2640 6361,2613 6464,2671 6492,2771 6519,2871 6460,2975 6360,3002 3875,3684 3690,3760 3035,3821 3029,3822 3023,3822 3017,3822 L 3017,3822 Z"/>
          <path fill="rgb(62,75,90)" stroke="none" d="M 10576,3835 C 10570,3835 10564,3835 10558,3834 9878,3770 9695,3694 7100,2983 7001,2955 6942,2852 6969,2752 6997,2652 7100,2593 7200,2621 9798,3333 9954,3401 10594,3461 10697,3470 10773,3562 10763,3665 10754,3762 10672,3835 10576,3835 L 10576,3835 Z"/>
          <path fill="rgb(196,111,95)" stroke="none" d="M 6761,1961 C 6895,1961 7021,1997 7129,2060 L 7129,1364 C 7129,1223 7016,1109 6875,1109 L 6647,1109 C 6507,1109 6393,1223 6393,1364 L 6393,2060 C 6501,1997 6627,1961 6761,1961 L 6761,1961 Z"/>
          <path fill="rgb(196,111,95)" stroke="none" d="M 7129,3327 C 7021,3390 6895,3426 6761,3426 6627,3426 6501,3390 6393,3327 L 6393,11005 7129,11005 7129,3327 Z"/>
          <path fill="rgb(180,95,74)" stroke="none" d="M 7009,1148 C 6970,1123 6924,1109 6875,1109 L 6647,1109 C 6507,1109 6393,1223 6393,1364 L 6393,2060 C 6501,1997 6627,1961 6761,1961 6805,1961 6847,1965 6889,1972 L 6889,1364 C 6889,1272 6937,1192 7009,1148 Z"/>
          <path fill="rgb(180,95,74)" stroke="none" d="M 6761,3426 C 6627,3426 6501,3390 6393,3327 L 6393,11005 6889,11005 6889,3414 C 6847,3422 6805,3426 6761,3426 L 6761,3426 Z"/>
          <path fill="rgb(244,181,55)" stroke="none" d="M 8993,7035 L 12675,7035 C 12849,7035 12991,7177 12991,7351 L 12991,7474 C 12991,7647 12849,7789 12675,7789 L 8993,7789 C 8819,7789 8677,7647 8677,7474 L 8677,7351 C 8677,7177 8819,7035 8993,7035 L 8993,7035 Z"/>
          <path fill="rgb(229,157,31)" stroke="none" d="M 12675,7289 L 8993,7289 C 8890,7289 8798,7239 8741,7162 8701,7215 8677,7280 8677,7351 L 8677,7473 C 8677,7647 8819,7789 8993,7789 L 12675,7789 C 12849,7789 12991,7647 12991,7473 L 12991,7351 C 12991,7280 12967,7215 12927,7162 12870,7239 12778,7289 12675,7289 L 12675,7289 Z"/>
          <path fill="rgb(254,202,87)" stroke="none" d="M 12519,7789 C 12413,8583 11733,9196 10910,9196 10086,9196 9406,8583 9300,7789 L 12519,7789 12519,7789 Z"/>
          <path fill="rgb(244,181,55)" stroke="none" d="M 1778,7789 L 1028,7789 C 1134,8583 1814,9196 2637,9196 2767,9196 2892,9181 3013,9152 2365,8999 1868,8459 1778,7789 L 1778,7789 Z"/>
          <path fill="rgb(244,181,55)" stroke="none" d="M 10051,7789 L 9300,7789 C 9406,8583 10086,9196 10910,9196 11039,9196 11164,9181 11285,9152 10638,8999 10140,8459 10051,7789 L 10051,7789 Z"/>
          <path fill="rgb(254,202,87)" stroke="none" d="M 3216,3623 C 3216,3711 3193,3798 3149,3874 3104,3951 3041,4014 2965,4058 2888,4102 2801,4126 2713,4126 2625,4126 2538,4102 2461,4058 2385,4014 2321,3951 2277,3874 2233,3798 2210,3711 2210,3623 2210,3534 2233,3448 2277,3371 2321,3295 2385,3231 2461,3187 2538,3143 2625,3120 2713,3120 2801,3120 2888,3143 2965,3187 3041,3231 3104,3295 3149,3371 3193,3448 3216,3534 3216,3623 L 3216,3623 Z"/>
          <path fill="rgb(254,202,87)" stroke="none" d="M 11337,3623 C 11337,3711 11314,3798 11270,3874 11226,3951 11162,4014 11086,4058 11009,4102 10922,4126 10834,4126 10746,4126 10659,4102 10583,4058 10506,4014 10443,3951 10398,3874 10354,3798 10331,3711 10331,3623 10331,3534 10354,3448 10398,3371 10443,3295 10506,3231 10583,3187 10659,3143 10746,3120 10834,3120 10922,3120 11009,3143 11086,3187 11162,3231 11226,3295 11270,3371 11314,3448 11337,3534 11337,3623 L 11337,3623 Z"/>
          <path fill="rgb(62,75,90)" stroke="none" d="M 8182,10930 L 5341,10930 C 5167,10930 5025,11072 5025,11245 L 5025,11759 8497,11759 8497,11245 C 8497,11072 8355,10930 8182,10930 L 8182,10930 Z"/>
          <path fill="rgb(48,63,73)" stroke="none" d="M 5031,11183 C 5027,11203 5025,11224 5025,11245 L 5025,11759 8497,11759 8497,11245 C 8497,11224 8495,11203 8491,11183 L 5031,11183 5031,11183 Z"/>
          <path fill="rgb(87,101,116)" stroke="none" d="M 8609,11684 L 4926,11684 C 4753,11684 4611,11826 4611,11999 L 4611,12122 C 4611,12296 4753,12438 4926,12438 L 8609,12438 C 8783,12438 8925,12296 8925,12122 L 8925,11999 C 8925,11826 8783,11684 8609,11684 L 8609,11684 Z"/>
          <path fill="rgb(62,75,90)" stroke="none" d="M 8609,11937 L 4926,11937 C 4824,11937 4732,11887 4674,11811 4635,11863 4611,11929 4611,11999 L 4611,12122 C 4611,12296 4753,12438 4927,12438 L 8609,12438 C 8783,12438 8925,12296 8925,12122 L 8925,11999 C 8925,11929 8901,11863 8861,11811 8803,11887 8712,11937 8609,11937 L 8609,11937 Z"/>
          <path fill="rgb(254,202,87)" stroke="none" d="M 7494,2693 C 7494,2822 7460,2948 7396,3060 7331,3171 7239,3264 7127,3328 7016,3392 6890,3426 6761,3426 6632,3426 6506,3392 6395,3328 6283,3264 6191,3171 6127,3060 6062,2948 6028,2822 6028,2693 6028,2565 6062,2438 6127,2327 6191,2215 6283,2123 6395,2059 6506,1994 6632,1960 6761,1960 6890,1960 7016,1994 7127,2059 7239,2123 7331,2215 7396,2327 7460,2438 7494,2565 7494,2693 L 7494,2693 Z"/>
          <path fill="rgb(244,181,55)" stroke="none" d="M 2961,3623 C 2961,3494 3009,3377 3088,3288 2996,3185 2862,3120 2713,3120 2435,3120 2210,3345 2210,3623 2210,3900 2435,4126 2713,4126 2862,4126 2996,4060 3088,3957 3009,3868 2961,3751 2961,3623 L 2961,3623 Z"/>
          <path fill="rgb(244,181,55)" stroke="none" d="M 11082,3623 C 11082,3494 11130,3377 11209,3288 11117,3185 10983,3120 10834,3120 10556,3120 10331,3345 10331,3623 10331,3900 10556,4126 10834,4126 10983,4126 11117,4060 11209,3957 11130,3868 11082,3751 11082,3623 L 11082,3623 Z"/>
          <path fill="rgb(244,181,55)" stroke="none" d="M 6779,2693 C 6779,2426 6922,2192 7136,2064 7027,1998 6898,1960 6761,1960 6356,1960 6028,2289 6028,2693 6028,3098 6356,3426 6761,3426 6898,3426 7027,3388 7136,3323 6922,3195 6779,2961 6779,2693 L 6779,2693 Z"/>
          <path fill="rgb(244,181,55)" stroke="none" d="M 872,7035 L 4554,7035 C 4728,7035 4870,7177 4870,7351 L 4870,7474 C 4870,7647 4728,7789 4554,7789 L 872,7789 C 698,7789 556,7647 556,7473 L 556,7351 C 556,7177 698,7035 872,7035 L 872,7035 Z"/>
          <path fill="rgb(229,157,31)" stroke="none" d="M 4554,7289 L 872,7289 C 769,7289 677,7239 620,7162 580,7215 556,7280 556,7351 L 556,7473 C 556,7647 698,7789 872,7789 L 4554,7789 C 4728,7789 4870,7647 4870,7473 L 4870,7351 C 4870,7280 4846,7215 4806,7162 4749,7239 4657,7289 4554,7289 L 4554,7289 Z"/>
         </g>
        </g>
       </g>
       <g class="Graphic">
        <g id="id4">
         <rect class="BoundingBox" stroke="none" fill="none" x="9700" y="4747" width="2414" height="2414"/>
         <path fill="rgb(0,0,0)" stroke="none" d="M 9969,6252 L 9969,5062 C 9969,5026 9998,4997 10033,4997 L 11780,4997 C 11815,4997 11844,5026 11844,5062 L 11844,6252 9969,6252 9969,6252 Z"/>
         <path fill="rgb(108,112,114)" stroke="none" d="M 9702,6745 L 9969,6252 11844,6252 12111,6745 9702,6745 Z"/>
         <path fill="rgb(155,204,234)" stroke="none" d="M 10907,6176 L 10045,6176 10045,5074 11768,5074 11768,6176 10907,6176 Z"/>
         <path fill="rgb(0,0,0)" stroke="none" d="M 9702,6745 L 12111,6745 12111,6845 C 12111,6881 12082,6910 12046,6910 L 9767,6910 C 9731,6910 9702,6881 9702,6845 L 9702,6745 9702,6745 Z"/>
         <path fill="rgb(225,230,233)" stroke="none" d="M 11163,6631 L 10650,6631 10735,6473 11078,6473 11163,6631 Z"/>
         <path fill="rgb(153,155,164)" stroke="none" d="M 10351,5191 L 10193,5349 C 10181,5362 10181,5382 10193,5395 10199,5401 10208,5404 10216,5404 10224,5404 10232,5401 10239,5395 L 10397,5237 C 10409,5224 10409,5204 10397,5191 10384,5179 10364,5179 10351,5191 L 10351,5191 Z"/>
         <path fill="rgb(153,155,164)" stroke="none" d="M 10307,5479 L 10207,5579 C 10195,5592 10195,5612 10207,5624 10213,5631 10222,5634 10230,5634 10238,5634 10246,5631 10252,5624 L 10352,5525 C 10365,5512 10365,5492 10352,5479 10340,5467 10319,5467 10307,5479 L 10307,5479 Z"/>
         <path fill="rgb(153,155,164)" stroke="none" d="M 10629,5202 C 10617,5190 10596,5190 10584,5202 L 10416,5370 C 10403,5383 10403,5403 10416,5416 10422,5422 10430,5425 10439,5425 10447,5425 10455,5422 10461,5416 L 10629,5248 C 10642,5235 10642,5215 10629,5202 L 10629,5202 Z"/>
        </g>
       </g>
       <g class="Graphic">
        <g id="id5">
         <rect class="BoundingBox" stroke="none" fill="none" x="1445" y="4747" width="2287" height="2287"/>
         <defs>
          <clipPath id="clip_path_2" clipPathUnits="userSpaceOnUse">
           <path d="M 1445,4747 L 3731,4747 3731,7033 1445,7033 1445,4747 Z"/>
          </clipPath>
         </defs>
         <g clip-path="url(#clip_path_2)">
          <path fill="rgb(160,82,45)" stroke="none" d="M 2588,6709 L 3617,6709 C 3659,6709 3693,6675 3693,6633 L 3693,6557 C 3693,6515 3659,6481 3617,6481 L 1559,6481 C 1517,6481 1483,6515 1483,6557 L 1483,6633 C 1483,6675 1517,6709 1559,6709 L 2588,6709 Z"/>
          <path fill="rgb(120,62,34)" stroke="none" d="M 3617,6481 L 3502,6481 C 3544,6481 3579,6515 3579,6557 L 3579,6633 C 3579,6675 3544,6709 3502,6709 L 3617,6709 C 3659,6709 3693,6675 3693,6633 L 3693,6557 C 3693,6515 3659,6481 3617,6481 L 3617,6481 Z"/>
          <path fill="rgb(130,90,44)" stroke="none" d="M 1636,6709 L 1940,6709 1940,6862 C 1940,6904 1906,6938 1864,6938 L 1712,6938 C 1670,6938 1636,6904 1636,6862 L 1636,6709 Z"/>
          <path fill="rgb(130,90,44)" stroke="none" d="M 3236,6709 L 3541,6709 3541,6862 C 3541,6904 3506,6938 3464,6938 L 3312,6938 C 3270,6938 3236,6904 3236,6862 L 3236,6709 Z"/>
          <path fill="rgb(98,68,33)" stroke="none" d="M 3426,6709 L 3426,6862 C 3426,6904 3392,6938 3350,6938 L 3464,6938 C 3506,6938 3541,6904 3541,6862 L 3541,6709 3426,6709 Z"/>
          <path fill="rgb(255,235,58)" stroke="none" d="M 3007,4918 L 3007,5071 2474,5071 2474,4918 C 2474,4876 2508,4842 2550,4842 L 2931,4842 C 2973,4842 3007,4876 3007,4918 L 3007,4918 Z"/>
          <path fill="rgb(255,235,58)" stroke="none" d="M 2474,6252 L 3007,6252 3007,6481 2474,6481 2474,6252 Z"/>
          <path fill="rgb(63,81,181)" stroke="none" d="M 2474,5071 L 3007,5071 3007,6252 2474,6252 2474,5071 Z"/>
          <path fill="rgb(255,220,0)" stroke="none" d="M 2169,6290 L 2474,6290 2474,6481 2169,6481 2169,6290 Z"/>
          <path fill="rgb(255,220,0)" stroke="none" d="M 2474,5223 L 2474,5338 2169,5338 2169,5223 C 2169,5181 2203,5147 2245,5147 L 2398,5147 C 2440,5147 2474,5181 2474,5223 L 2474,5223 Z"/>
          <path fill="rgb(233,30,99)" stroke="none" d="M 2169,5338 L 2474,5338 2474,6290 2169,6290 2169,5338 Z"/>
          <path fill="rgb(255,220,0)" stroke="none" d="M 3007,6138 L 3274,6138 3274,6481 3007,6481 3007,6138 Z"/>
          <path fill="rgb(255,220,0)" stroke="none" d="M 3274,5338 L 3274,5604 3007,5604 3007,5338 C 3007,5295 3041,5261 3083,5261 L 3198,5261 C 3240,5261 3274,5295 3274,5338 L 3274,5338 Z"/>
          <path fill="rgb(2,169,244)" stroke="none" d="M 3007,5604 L 3274,5604 3274,6138 3007,6138 3007,5604 Z"/>
          <path fill="rgb(255,220,0)" stroke="none" d="M 3541,5109 L 3541,5452 3274,5452 3274,5109 C 3274,5067 3308,5033 3350,5033 L 3464,5033 C 3506,5033 3541,5067 3541,5109 L 3541,5109 Z"/>
          <path fill="rgb(254,193,8)" stroke="none" d="M 3464,5033 L 3350,5033 C 3392,5033 3426,5067 3426,5109 L 3426,5452 3541,5452 3541,5109 C 3541,5067 3506,5033 3464,5033 L 3464,5033 Z"/>
          <path fill="rgb(255,220,0)" stroke="none" d="M 3274,6061 L 3541,6061 3541,6481 3274,6481 3274,6061 Z"/>
          <path fill="rgb(254,193,8)" stroke="none" d="M 3426,6061 L 3541,6061 3541,6481 3426,6481 3426,6061 Z"/>
          <path fill="rgb(233,30,99)" stroke="none" d="M 3274,5452 L 3541,5452 3541,6061 3274,6061 3274,5452 Z"/>
          <path fill="rgb(173,20,87)" stroke="none" d="M 3426,5452 L 3541,5452 3541,6061 3426,6061 3426,5452 Z"/>
          <path fill="rgb(255,235,58)" stroke="none" d="M 2077,5504 L 1820,5435 1909,5104 C 1920,5063 1961,5039 2002,5050 L 2113,5080 C 2153,5091 2177,5132 2166,5173 L 2077,5504 Z"/>
          <path fill="rgb(255,235,58)" stroke="none" d="M 1920,6093 L 1831,6424 C 1820,6465 1778,6489 1738,6478 L 1627,6448 C 1587,6437 1563,6396 1573,6355 L 1662,6023 1920,6093 Z"/>
          <path fill="rgb(63,81,181)" stroke="none" d="M 1662,6024 L 1820,5435 2078,5504 1920,6093 1662,6024 Z"/>
          <path fill="rgb(0,0,0)" stroke="none" d="M 3617,6442 L 3579,6442 3579,5109 C 3579,5046 3527,4995 3464,4995 L 3350,4995 C 3287,4995 3236,5046 3236,5109 L 3236,5230 C 3223,5226 3211,5223 3198,5223 L 3083,5223 C 3070,5223 3057,5226 3045,5230 L 3045,4918 C 3045,4855 2994,4804 2931,4804 L 2550,4804 C 2487,4804 2436,4855 2436,4918 L 2436,5116 C 2423,5111 2410,5109 2398,5109 L 2245,5109 C 2230,5109 2215,5112 2201,5118 2190,5081 2160,5052 2122,5042 L 2012,5012 C 1982,5004 1951,5008 1925,5024 1898,5039 1879,5064 1872,5094 L 1681,5810 1625,6014 1536,6345 C 1529,6375 1533,6406 1548,6432 1550,6436 1553,6439 1556,6443 1494,6445 1445,6495 1445,6557 L 1445,6633 C 1445,6696 1496,6747 1559,6747 L 1597,6747 1597,6862 C 1597,6925 1649,6976 1712,6976 L 1864,6976 C 1927,6976 1978,6925 1978,6862 L 1978,6747 3198,6747 3198,6862 C 3198,6925 3249,6976 3312,6976 L 3464,6976 C 3527,6976 3579,6925 3579,6862 L 3579,6747 3617,6747 C 3680,6747 3731,6696 3731,6633 L 3731,6557 C 3731,6494 3680,6442 3617,6442 Z M 3045,6442 L 3045,6176 3236,6176 3236,6442 3045,6442 Z M 2512,6442 L 2512,6290 2969,6290 2969,6442 2512,6442 Z M 2207,6442 L 2207,6328 2436,6328 2436,6442 2207,6442 Z M 1864,6442 C 1864,6440 1866,6437 1867,6434 L 2131,5452 2131,6442 1864,6442 Z M 1799,5661 L 1847,5482 2031,5531 1893,6046 1709,5997 1799,5661 Z M 2512,5109 L 2969,5109 2969,6214 2512,6214 2512,5109 Z M 3502,6023 L 3312,6023 3312,5490 3502,5490 3502,6023 Z M 3236,6061 L 3236,6100 3045,6100 3045,5642 3236,5642 3236,6061 Z M 2436,6252 L 2207,6252 2207,5376 2436,5376 2436,6252 Z M 3312,6138 L 3312,6100 3502,6100 3502,6442 3312,6442 3312,6138 Z M 3312,5109 C 3312,5088 3329,5071 3350,5071 L 3464,5071 C 3485,5071 3502,5088 3502,5109 L 3502,5414 3312,5414 3312,5109 Z M 3083,5299 L 3198,5299 C 3219,5299 3236,5317 3236,5338 L 3236,5566 3045,5566 3045,5338 C 3045,5317 3062,5299 3083,5299 Z M 2550,4880 L 2931,4880 C 2952,4880 2969,4897 2969,4918 L 2969,5033 2512,5033 2512,4918 C 2512,4897 2529,4880 2550,4880 Z M 2245,5185 L 2398,5185 C 2419,5185 2436,5202 2436,5223 L 2436,5299 2207,5299 2207,5223 C 2207,5202 2224,5185 2245,5185 Z M 1946,5114 C 1950,5096 1966,5085 1984,5085 1987,5085 1990,5085 1994,5085 L 2104,5115 C 2114,5117 2123,5124 2128,5133 2133,5142 2134,5153 2131,5163 L 2051,5457 1867,5408 1946,5114 Z M 1689,6072 L 1873,6121 1794,6414 C 1792,6424 1786,6433 1777,6438 1768,6444 1757,6445 1748,6442 L 1636,6412 C 1626,6409 1618,6402 1613,6394 1608,6385 1608,6375 1610,6366 L 1689,6072 Z M 1902,6862 C 1902,6883 1885,6900 1864,6900 L 1712,6900 C 1691,6900 1674,6883 1674,6862 L 1674,6747 1902,6747 1902,6862 Z M 3502,6862 C 3502,6883 3485,6900 3464,6900 L 3312,6900 C 3291,6900 3274,6883 3274,6862 L 3274,6747 3502,6747 3502,6862 Z M 3655,6633 C 3655,6654 3638,6671 3617,6671 L 1559,6671 C 1538,6671 1521,6654 1521,6633 L 1521,6557 C 1521,6536 1538,6519 1559,6519 L 3617,6519 C 3638,6519 3655,6536 3655,6557 L 3655,6633 Z"/>
          <path fill="rgb(0,0,0)" stroke="none" d="M 2626,5299 L 2855,5299 C 2876,5299 2893,5282 2893,5261 2893,5240 2876,5223 2855,5223 L 2626,5223 C 2605,5223 2588,5240 2588,5261 2588,5282 2605,5299 2626,5299 L 2626,5299 Z"/>
          <path fill="rgb(0,0,0)" stroke="none" d="M 2626,5452 L 2855,5452 C 2876,5452 2893,5435 2893,5414 2893,5393 2876,5376 2855,5376 L 2626,5376 C 2605,5376 2588,5393 2588,5414 2588,5435 2605,5452 2626,5452 L 2626,5452 Z"/>
         </g>
        </g>
       </g>
      </g>
     </g>
    </g>
   </g>
  </g>
 </g>
</svg>