<svg id="Capa_1" enable-background="new 0 0 512 512" height="512" viewBox="0 0 512 512" width="512" xmlns="http://www.w3.org/2000/svg"><g><g><g><g><path d="m112.852 342.699h51.275v61.624h-51.275z" fill="#ffc250" transform="matrix(.707 -.707 .707 .707 -223.549 207.326)"/></g></g><g><g><path d="m180.199 378.963-47.162-47.162c-4.023-4.023-4.023-10.546 0-14.569l32.26-32.26 61.73 61.73-32.26 32.26c-4.022 4.024-10.545 4.024-14.568.001z" fill="#634086"/></g></g><g><g><path d="m57.463 512h-47.161c-5.69 0-10.302-4.612-10.302-10.302v-47.162c0-2.732 1.085-5.353 3.017-7.284l79.194-79.194c4.023-4.023 10.546-4.023 14.569 0l47.162 47.162c4.023 4.023 4.023 10.546 0 14.569l-79.194 79.194c-1.932 1.932-4.552 3.017-7.285 3.017z" fill="#634086"/></g></g><g><circle cx="324.683" cy="187.317" fill="#845caf" r="187.317"/></g><g><path d="m444.341 43.203c26.976 32.453 43.203 74.159 43.203 119.659 0 103.452-83.865 187.317-187.317 187.317-45.499 0-87.205-16.227-119.659-43.203 34.36 41.336 86.161 67.659 144.114 67.659 103.453-.001 187.318-83.866 187.318-187.318 0-57.953-26.322-109.754-67.659-144.114z" fill="#734d9d"/></g><g><circle cx="324.683" cy="187.317" fill="#80b4fb" r="141.528"/></g></g><g><g><g><path d="m360.362 129.338c0-19.705-15.974-35.679-35.679-35.679s-35.679 15.974-35.679 35.679v8.92h71.359v-8.92z" fill="#407093"/></g><g><path d="m407.043 167.392h-25.273c-4.268 0-7.726-3.459-7.726-7.726s3.459-7.726 7.726-7.726h25.274c4.268 0 7.726 3.459 7.726 7.726s-3.459 7.726-7.727 7.726z" fill="#407093"/></g><g><path d="m407.043 200.804h-25.273c-4.268 0-7.726-3.459-7.726-7.726s3.459-7.726 7.726-7.726h25.274c4.268 0 7.726 3.459 7.726 7.726s-3.459 7.726-7.727 7.726z" fill="#407093"/></g><g><path d="m267.596 167.392h-25.273c-4.267 0-7.726-3.459-7.726-7.726s3.459-7.726 7.726-7.726h25.273c4.268 0 7.726 3.459 7.726 7.726s-3.459 7.726-7.726 7.726z" fill="#407093"/></g><g><path d="m267.596 200.804h-25.273c-4.267 0-7.726-3.459-7.726-7.726s3.459-7.726 7.726-7.726h25.273c4.268 0 7.726 3.459 7.726 7.726s-3.459 7.726-7.726 7.726z" fill="#407093"/></g><g><path d="m353.928 273.138 20.004-20.004c5.018-5.018 7.838-11.825 7.838-18.922v-74.546c0-11.823-9.585-21.408-21.408-21.408h-71.359c-11.823 0-21.408 9.585-21.408 21.408v74.546c0 7.097 2.819 13.903 7.838 18.922l20.004 20.004c5.018 5.018 11.825 7.838 18.922 7.838h20.647c7.097 0 13.904-2.82 18.922-7.838z" fill="#e278b1"/></g><g><path d="m373.932 253.134c5.018-5.018 7.838-11.825 7.838-18.922v-51.286c-15.438 26.902-44.179 63.58-92.851 83.694l6.518 6.518c5.018 5.018 11.825 7.838 18.922 7.838h20.647c7.097 0 13.903-2.819 18.922-7.838z" fill="#dd5ca2"/></g></g></g><g><g><path d="m381.77 208.945v85.033c0 3.905-2.208 7.474-5.702 9.218l-46.785 23.345c-2.896 1.445-6.303 1.445-9.199 0l-46.785-23.345c-3.494-1.744-5.702-5.313-5.702-9.218v-85.033c0-5.256-6.144-8.114-10.163-4.727l-28.145 23.709c-7.042 5.932-11.106 14.67-11.106 23.877v66.602c0 14.327 7.368 27.648 19.505 35.262l47.097 29.546v118.485c0 5.69 4.612 10.302 10.302 10.302h59.195c5.69 0 10.302-4.612 10.302-10.302v-118.486l47.097-29.546c12.137-7.614 19.505-20.934 19.505-35.262v-66.602c0-9.207-4.064-17.945-11.106-23.877l-28.145-23.709c-4.021-3.385-10.165-.528-10.165 4.728z" fill="#ffe07d"/></g><g><path d="m408.29 217.996v100.409c0 6.489-3.282 12.421-8.777 15.868l-48.072 30.158c-6.068 3.807-9.752 10.467-9.752 17.631v129.938h12.592c5.69 0 10.302-4.612 10.302-10.302v-118.485l47.097-29.546c12.137-7.614 19.505-20.934 19.505-35.262v-66.602c0-9.207-4.064-17.945-11.106-23.877z" fill="#ffd064"/></g></g><g><path d="m316.957 138.258h15.453v142.718h-15.453z" fill="#c3247d"/></g><g><path d="m316.957 512v-94.533c0-4.268 3.459-7.726 7.726-7.726s7.726 3.459 7.726 7.726v94.533z" fill="#ffc250"/></g></g></svg>